# xmcd CD database file
#
# Track frame offsets:
#	150
#	47228
#	68753
#	90403
#	105868
#	122419
#
# Disc length: 2287 seconds
#
# Revision: 0
# Processed by: cddbd v1.5.1PL2 Copyright (c) Steve Scherf et al.
# Submitted via: CDex 1.51
#
DISCID=3e08ed06
DTITLE=Harald Grosskopf - Oceanheart
DYEAR=1985
DGENRE=New Age
TTITLE0=Eve On The Hill
TTITLE1=While I'm Walking
TTITLE2=Oceanheart
TTITLE3=Coming Out
TTITLE4=Pondicherry Dream
TTITLE5=Minimal Boogie
EXTD=YEAR: 1985
EXTT0=
EXTT1=
EXTT2=
EXTT3=
EXTT4=
EXTT5=
PLAYORDER=
